<?xml version="1.0" encoding="UTF-8" standalone="no"?>
<!-- Created with Inkscape (http://www.inkscape.org/) -->

<svg
   xmlns:dc="http://purl.org/dc/elements/1.1/"
   xmlns:cc="http://creativecommons.org/ns#"
   xmlns:rdf="http://www.w3.org/1999/02/22-rdf-syntax-ns#"
   xmlns:svg="http://www.w3.org/2000/svg"
   xmlns="http://www.w3.org/2000/svg"
   xmlns:sodipodi="http://sodipodi.sourceforge.net/DTD/sodipodi-0.dtd"
   xmlns:inkscape="http://www.inkscape.org/namespaces/inkscape"
   id="svg2985"
   version="1.1"
   inkscape:version="0.48.5 r10040"
   width="472.3375"
   height="113.3875"
   xml:space="preserve"
   sodipodi:docname="RWTH_IST_Logo.pdf"><metadata
     id="metadata2991"><rdf:RDF><cc:Work
         rdf:about=""><dc:format>image/svg+xml</dc:format><dc:type
           rdf:resource="http://purl.org/dc/dcmitype/StillImage" /><dc:title></dc:title></cc:Work></rdf:RDF></metadata><defs
     id="defs2989"><clipPath
       clipPathUnits="userSpaceOnUse"
       id="clipPath3001"><path
         d="m 0,0 3778.7,0 0,907 L 0,907 0,0 z"
         id="path3003" /></clipPath></defs><sodipodi:namedview
     pagecolor="#ffffff"
     bordercolor="#666666"
     borderopacity="1"
     objecttolerance="10"
     gridtolerance="10"
     guidetolerance="10"
     inkscape:pageopacity="0"
     inkscape:pageshadow="2"
     inkscape:window-width="1920"
     inkscape:window-height="1018"
     id="namedview2987"
     showgrid="false"
     inkscape:zoom="2.0659113"
     inkscape:cx="99.674156"
     inkscape:cy="1.2242235"
     inkscape:window-x="1912"
     inkscape:window-y="112"
     inkscape:window-maximized="1"
     inkscape:current-layer="g2993" /><g
     id="g2993"
     inkscape:groupmode="layer"
     inkscape:label="ink_ext_XXXXXX"
     transform="matrix(1.25,0,0,-1.25,0,113.3875)"><rect
       style="fill:#ffffff;fill-opacity:1;stroke:none"
       id="rect3063"
       width="507.60516"
       height="92.789513"
       x="-141.46474"
       y="-78.098587"
       transform="scale(1,-1)" /><g
       id="g2995"
       transform="matrix(0.11617543,0,0,0.11617543,-58.829402,-11.500296)"><g
         id="g2997"><g
           id="g2999"
           clip-path="url(#clipPath3001)"><path
             d="m 3073.97,412.031 20.52,0 c 19.61,0 30.19,-9.961 30.19,-29.875 0,-23.23 -11.79,-32.285 -32.61,-32.285 l -18.1,0 0,62.16 z m -43.44,-183.465 43.44,0 0,91.129 23.24,0 c 17.5,0 25.05,-10.261 25.65,-27.156 l 1.2,-41.348 c 0.31,-8.437 1.21,-16.582 5.43,-22.625 l 47.07,0 0,1.805 c -8.13,4.238 -9.34,15.996 -9.65,38.621 -0.59,45.571 -5.12,61.875 -34.69,65.793 l 0,0.598 c 24.43,5.137 35.91,24.441 35.91,53.113 0,36.817 -21.73,55.527 -57.35,55.527 l -80.25,0 0,-215.457"
             style="fill:#8ebae5;fill-opacity:1;fill-rule:nonzero;stroke:none"
             id="path3005"
             inkscape:connector-curvature="0" /><path
             d="m 2389.89,444.02 0,-150.27 c 0,-57.637 33.49,-69.414 68.8,-69.414 35.3,0 68.8,14.484 68.8,69.414 l 0,150.27 -43.45,0 0,-150.27 c 0,-21.426 -5.12,-37.422 -25.35,-37.422 -20.21,0 -25.35,15.996 -25.35,37.422 l 0,150.27 -43.45,0"
             style="fill:#8ebae5;fill-opacity:1;fill-rule:nonzero;stroke:none"
             id="path3007"
             inkscape:connector-curvature="0" /><path
             d="m 2538.13,444.02 0,-215.446 39.83,0 0,150.871 0.6,0 53.11,-150.871 49.49,0 0,215.446 -39.83,0 0,-147.555 -0.6,0 -52.51,147.555 -50.09,0"
             style="fill:#8ebae5;fill-opacity:1;fill-rule:nonzero;stroke:none"
             id="path3009"
             inkscape:connector-curvature="0" /><path
             d="m 2692.33,228.574 43.4492,0 0,215.445 -43.4492,0 0,-215.445 z"
             style="fill:#8ebae5;fill-opacity:1;fill-rule:nonzero;stroke:none"
             id="path3011"
             inkscape:connector-curvature="0" /><path
             d="m 2738.77,444.02 49.47,-215.446 55.83,0 49.48,215.446 -44.96,0 -31.98,-159.332 -0.9,0 -30.48,159.332 -46.46,0"
             style="fill:#8ebae5;fill-opacity:1;fill-rule:nonzero;stroke:none"
             id="path3013"
             inkscape:connector-curvature="0" /><path
             d="m 2897.43,444.02 0,-215.446 123.42,0 0,35.598 -79.97,0 0,57.937 72.43,0 0,35.618 -72.43,0 0,50.679 76.95,0 0,35.614 -120.4,0"
             style="fill:#8ebae5;fill-opacity:1;fill-rule:nonzero;stroke:none"
             id="path3015"
             inkscape:connector-curvature="0" /><path
             d="m 3171.73,295.859 0,-8.75 c 0,-39.843 19.31,-62.773 68.49,-62.773 47.07,0 74.84,20.519 74.84,66.094 0,26.25 -8.45,42.843 -41.04,57.031 l -33.49,14.473 c -18.41,7.851 -22.33,15.996 -22.33,29.277 0,12.668 5.13,25.051 24.74,25.051 16.59,0 23.53,-11.77 23.53,-31.992 l 41.65,0 0,6.043 c 0,41.339 -28.07,57.925 -66.69,57.925 -41.04,0 -66.68,-21.422 -66.68,-63.355 0,-35.918 17.8,-51.914 56.42,-65.188 28.67,-9.961 38.62,-17.195 38.62,-36.812 0,-18.106 -12.67,-26.555 -25.94,-26.555 -22.94,0 -28.67,12.969 -28.67,33.195 l 0,6.336 -43.45,0"
             style="fill:#8ebae5;fill-opacity:1;fill-rule:nonzero;stroke:none"
             id="path3017"
             inkscape:connector-curvature="0" /><path
             d="m 3320.74,228.574 43.4531,0 0,215.445 -43.4531,0 0,-215.445 z"
             style="fill:#8ebae5;fill-opacity:1;fill-rule:nonzero;stroke:none"
             id="path3019"
             inkscape:connector-curvature="0" /><path
             d="m 3589.88,444.02 -30.17,-83.278 -0.6,0 -28.37,83.278 -160.86,0 0,-35.614 47.07,0 0,-179.832 43.47,0 0,179.832 36.65,0 40.61,-95.047 0,-84.785 43.45,0 0,84.785 55.83,130.661 -47.08,0"
             style="fill:#8ebae5;fill-opacity:1;fill-rule:nonzero;stroke:none"
             id="path3021"
             inkscape:connector-curvature="0" /><path
             d="m 2008.18,463.617 -72,0 0,216.406 118.07,0 c 32.02,0.012 59.63,-20.714 68.64,-48.199 8.34,-25.457 1.21,-53.117 -17.61,-72.808 2.5,-6.782 4.93,-12.09 7.26,-18.18 5.23,-12.051 10.01,-24.098 15.24,-36.004 l 17.13,-41.215 -73.02,0 c 0,-0.043 -0.57,1.738 -1.15,2.465 -2.9,6.383 -5.53,13.215 -8.43,19.594 l -17.55,41.656 c -6.97,16.844 -13.94,32.758 -20.9,49.582 8.69,0.242 15.19,-1.387 23.58,2.473 5.9,2.898 14.84,10.109 15.07,23.937 -0.23,6.852 -2.13,12.043 -6.66,17.442 -4.55,5.019 -11.13,8.742 -19.7,8.859 0,0 -27.99,0.008 -27.97,0 l 0,-166.008"
             style="fill:#00549f;fill-opacity:1;fill-rule:nonzero;stroke:none"
             id="path3023"
             inkscape:connector-curvature="0" /><path
             d="m 2760.23,680.027 0,-216.41 -72,0 0,88.242 -50.41,0 0,-88.242 c -13.05,0 -27.14,0.145 -40.19,0 l -31.81,0 0,166.332 -50.35,0 0,-166.332 -72,0 0,166.332 -50.79,0 0,-166.332 -74.17,0 c -12.92,31.203 -26.57,62.703 -39.19,93.762 -1.46,6.531 -2.9,13.07 -4.8,19.453 l 0,-113.215 -74.31,0 c -14.73,34.254 -28.88,67.824 -43.58,102.582 -5.09,12.039 -9.26,21.836 -14.51,34.36 l -0.72,1.636 -11.45,26.852 -16.38,38.351 c -1.43,4.348 -3.76,8.282 -5.21,12.629 l 74.14,0 c 15.24,-37.007 30.63,-73.586 46.59,-110.015 l 0.44,-0.871 c -0.57,4.211 -1.89,9.582 -2.62,13.636 l 0,64.59 c 0.14,10.313 0,22.071 0,32.66 l 74.31,0 c 0.95,-2.355 1.47,-3.629 2.19,-5.519 8.71,-20.461 16.98,-40.778 25.69,-61.102 l 19.45,-44.265 c -0.43,4.648 -1.45,9.14 -2.04,13.636 l 0,97.25 291.31,0 0,-78.089 50.41,0 0,78.089 72,0"
             style="fill:#00549f;fill-opacity:1;fill-rule:nonzero;stroke:none"
             id="path3025"
             inkscape:connector-curvature="0" /><path
             d="m 3017.29,680.051 -53.97,0 -45.16,-170.594 -45.16,170.594 -53.96,0 -57.29,-216.434 45.48,0 10,45.774 57.6,0 9.99,-45.774 66.68,0 10,45.774 57.6,0 10,-45.774 45.47,0 -57.28,216.434 z m -192.48,-134.891 20.91,97.301 0.6,0 20.93,-97.301 -42.44,0 z m 144.27,0 20.92,97.301 0.61,0 20.91,-97.301 -42.44,0"
             style="fill:#8ebae5;fill-opacity:1;fill-rule:nonzero;stroke:none"
             id="path3027"
             inkscape:connector-curvature="0" /><path
             d="m 3204.57,606.199 c 0,31.379 -4.52,76.949 -66.69,76.949 -65.17,0 -73.33,-46.468 -73.33,-111.949 0,-65.48 8.16,-111.953 73.33,-111.953 57.02,0 68.5,40.133 68.5,86.606 l -43.45,0 c 0,-46.473 -11.47,-54.622 -27.16,-54.622 -18.71,0 -27.76,11.766 -27.76,76.95 0,60.953 5.12,82.98 27.16,82.98 19.61,0 25.94,-13.582 25.94,-44.961 l 43.46,0"
             style="fill:#8ebae5;fill-opacity:1;fill-rule:nonzero;stroke:none"
             id="path3029"
             inkscape:connector-curvature="0" /><path
             d="m 3214.96,463.617 43.64,0 0,96.078 50.92,0 0,-96.078 43.65,0 0,216.406 -43.65,0 0,-82.746 -50.92,0 0,82.746 -43.64,0 0,-216.406"
             style="fill:#8ebae5;fill-opacity:1;fill-rule:nonzero;stroke:none"
             id="path3031"
             inkscape:connector-curvature="0" /><path
             d="m 3362.64,680.07 0,-216.453 123.99,0 0,35.77 -80.34,0 0,58.211 72.76,0 0,35.769 -72.76,0 0,50.93 77.3,0 0,35.773 -120.95,0"
             style="fill:#8ebae5;fill-opacity:1;fill-rule:nonzero;stroke:none"
             id="path3033"
             inkscape:connector-curvature="0" /><path
             d="m 3493.11,680.023 0,-216.406 40.01,0 0,151.547 0.6,0 53.35,-151.547 49.71,0 0,216.406 -40.01,0 0,-148.207 -0.61,0 -52.74,148.207 -50.31,0"
             style="fill:#8ebae5;fill-opacity:1;fill-rule:nonzero;stroke:none"
             id="path3035"
             inkscape:connector-curvature="0" /><path
             d="m 1789.44,226.77 10,0 0,453.551 -10,0 0,-453.551 z"
             style="fill:#00549f;fill-opacity:1;fill-rule:nonzero;stroke:none"
             id="path3037"
             inkscape:connector-curvature="0" /><path
             d="m 395.793,227.078 52.145,251.453 c -3.997,26.617 -24.067,47.93 -50.067,53.664 l -0.422,0.063 -0.015,-0.102 -62.282,-300.484 c 15.715,-3.195 32.012,-4.887 48.672,-4.887 4.008,0 8.016,0.09 11.969,0.293 m 171.18,304.699 0.031,-0.031 c -0.223,0 -0.41,0.031 -0.633,0.031 -15.07,0 -29.328,-2.269 -42.758,-6.789 -13.422,-4.531 -25.199,-11.312 -35.351,-20.34 -10.121,-9.039 -18.211,-20.418 -24.239,-34.113 -6.039,-13.719 -9.05,-29.597 -9.05,-47.691 0,-16.977 5.015,-30.422 15.015,-40.285 9.985,-9.864 25.27,-18.496 45.825,-25.887 15.347,-5.488 26.449,-11.047 33.296,-16.66 6.832,-5.61 10.27,-13.078 10.27,-22.395 0,-7.949 -1.356,-14.953 -4.106,-20.957 -2.746,-6.035 -6.25,-10.976 -10.492,-14.805 -4.238,-3.847 -8.968,-6.707 -14.179,-8.632 -5.204,-1.922 -10.258,-2.879 -15.204,-2.879 -11.777,0 -20.078,2.39 -24.875,7.195 l -3.875,5.293 c -1.675,-1.602 -19.75,-8.523 -35.796,-11.973 -7.352,-1.574 -18.34,-3.261 -25.414,-4.277 2.914,-9.727 7.89,-17.996 15.542,-24.375 12.348,-10.293 32.481,-15.422 60.442,-15.422 32.058,0 58.59,7.246 79.539,21.781 20.98,14.52 34.59,37.262 40.891,68.231 0.82,4.101 1.515,8.008 2.058,11.711 0.555,3.711 0.82,7.32 0.82,10.894 -0.265,11.504 -3.57,21.645 -9.859,30.414 -6.301,8.778 -17.238,16.993 -32.867,24.668 l -41.52,19.735 c -8.796,4.094 -14.894,8.293 -18.3,12.551 -3.422,4.226 -5.141,9.375 -5.141,15.398 0,5.199 0.687,10.543 2.059,16.031 1.359,5.477 3.703,10.41 6.976,14.797 3.301,4.383 7.699,8.012 13.156,10.891 5.477,2.883 12.188,4.312 20.145,4.312 16.711,0 25.074,-8.621 25.074,-25.89 0,-2.481 -0.199,-5.219 -0.609,-8.211 -0.422,-3.028 -0.883,-6.176 -1.461,-9.469 l 56.738,0 1.649,8.226 c 0.554,3.836 1.011,7.454 1.453,10.895 0.398,3.418 0.59,6.625 0.59,9.668 0,2.852 -0.45,5.32 -0.711,7.961 l 56.531,0 -52.555,-254.594 61.524,0 52.558,254.594 66.621,0 10.692,50.398 -270.5,0"
             style="fill:#00549f;fill-opacity:1;fill-rule:nonzero;stroke:none"
             id="path3039"
             inkscape:connector-curvature="0" /><path
             d="m 445.355,489.297 c -0.058,0.172 -0.113,0.344 -0.167,0.512 0.054,-0.168 0.109,-0.34 0.167,-0.512"
             style="fill:#ffffff;fill-opacity:1;fill-rule:nonzero;stroke:none"
             id="path3041"
             inkscape:connector-curvature="0" /><path
             d="m 446.23,486.449 c -0.058,0.231 -0.132,0.453 -0.199,0.684 0.067,-0.231 0.141,-0.453 0.199,-0.684"
             style="fill:#ffffff;fill-opacity:1;fill-rule:nonzero;stroke:none"
             id="path3043"
             inkscape:connector-curvature="0" /><path
             d="m 443.57,494.047 c -0.011,0.019 -0.019,0.039 -0.031,0.074 0.012,-0.035 0.02,-0.055 0.031,-0.074"
             style="fill:#ffffff;fill-opacity:1;fill-rule:nonzero;stroke:none"
             id="path3045"
             inkscape:connector-curvature="0" /><path
             d="m 446.762,484.414 c -0.067,0.281 -0.137,0.563 -0.207,0.84 0.07,-0.277 0.14,-0.559 0.207,-0.84"
             style="fill:#ffffff;fill-opacity:1;fill-rule:nonzero;stroke:none"
             id="path3047"
             inkscape:connector-curvature="0" /><path
             d="m 447.383,481.645 c -0.059,0.304 -0.117,0.601 -0.192,0.906 0.075,-0.305 0.133,-0.602 0.192,-0.906"
             style="fill:#ffffff;fill-opacity:1;fill-rule:nonzero;stroke:none"
             id="path3049"
             inkscape:connector-curvature="0" /><path
             d="m 447.766,479.57 c -0.051,0.297 -0.106,0.602 -0.153,0.899 0.047,-0.297 0.102,-0.602 0.153,-0.899"
             style="fill:#ffffff;fill-opacity:1;fill-rule:nonzero;stroke:none"
             id="path3051"
             inkscape:connector-curvature="0" /><path
             d="m 596.348,531.781 11.148,0 c -27.43,97.731 -117.18,169.403 -223.68,169.403 -128.281,0 -232.289,-104.028 -232.289,-232.313 0,-112.301 79.7,-205.98 185.621,-227.594 l 2.168,10.481 c -100.941,20.664 -177.097,110.176 -177.097,217.113 0,122.199 99.418,221.609 221.597,221.609 100.36,0 185.348,-67.05 212.532,-158.699 M 347.695,292.219 c -2.808,-8.11 -4.73,-15.86 -4.859,-23.481 l 4.859,23.481 z m -13.218,-30.102 c 2.187,26.887 13.66,49.321 20.203,65.254 0.207,0.512 0.418,1.027 0.629,1.535 l 10.707,51.699 c 0.113,5.977 -0.059,12.454 -0.528,19.649 -4.433,1.172 -8.679,2.773 -12.711,4.734 -3.812,-5.379 -9.55,-14.285 -17.648,-28.738 -20.481,-36.633 -53.16,-55.098 -62.539,-80.996 0,0 17.144,-11.914 27.348,-17.859 14.187,-8.293 32.195,-15.344 34.539,-15.278 m 36.64,143.071 0.988,4.792 c -27.539,5.442 -48.3,29.727 -48.3,58.86 0,33.129 26.847,59.969 59.98,59.969 4.352,0 8.594,-0.457 12.668,-1.336 l 0.985,4.683 0.019,0.106 c -4.398,0.937 -8.973,1.437 -13.664,1.437 -35.84,0 -64.867,-29.043 -64.867,-64.859 0,-31.469 22.429,-57.735 52.191,-63.652 m 2.067,10 1.871,9.011 c -20.93,4.082 -36.719,22.508 -36.719,44.629 0,25.113 20.352,45.465 45.457,45.465 3.34,0 6.594,-0.363 9.723,-1.039 l 1.871,9.008 c -3.742,0.808 -7.621,1.238 -11.602,1.238 -30.148,0 -54.668,-24.52 -54.668,-54.66 0,-26.531 18.981,-48.703 44.067,-53.652 m 2.953,14.238 16.289,78.605 c -2.778,0.606 -5.656,0.938 -8.633,0.938 -22.129,0 -40.125,-17.996 -40.125,-40.141 0,-19.527 13.988,-35.82 32.469,-39.402 m 23.968,-181.567 -2.25,-10.847 c 14.325,0.859 28.301,3.008 41.813,6.34 -3.051,2.742 -5.641,5.808 -7.82,9.16 -10.332,-2.285 -20.93,-3.86 -31.743,-4.653 m 25.329,18.723 c 7.082,1.008 18.074,2.695 25.421,4.277 10.008,2.149 20.801,5.657 27.911,8.371 4.293,1.637 7.25,2.997 7.871,3.614 -16.469,21.347 -23.129,45.64 -29.032,61.836 -6.058,16.66 -12.957,30.515 -27.64,47.168 l -15.801,-76.172 c -0.43,-19.184 -1.309,-36.145 4.445,-50.071 0,0 2.77,0.372 6.836,0.965 0,0 0,0.012 -0.011,0.012 m 19.589,117.441 c 23.665,-34.675 25.629,-72.168 44.672,-92.109 0,0 18.27,10.059 28.18,16.524 13.703,9.023 28.07,22.003 29.027,24.101 -11.136,6.738 -20.386,14.949 -28.254,23.098 -0.933,0.34 -1.871,0.683 -2.843,1.035 -20.539,7.391 -35.828,16.023 -45.809,25.887 -8.039,7.921 -12.863,18.175 -14.437,30.703 -5.481,2.883 -11.594,5.742 -18.551,8.64 -0.344,-0.398 -0.703,-0.781 -1.051,-1.168 l -3.57,-17.207 c 3.101,-5.121 7.207,-11.523 12.636,-19.504 m 47.512,-108.21 c 3.231,-2.368 7.582,-3.965 13.039,-4.797 20.192,12.441 38.332,27.89 53.801,45.722 0,0.293 0.012,0.586 0.012,0.871 0,4.746 -0.903,9 -2.672,12.782 -17.668,-22.024 -39.457,-40.606 -64.18,-54.578 m 47.938,138.406 41.535,-19.735 c 0.16,-0.082 0.328,-0.175 0.496,-0.254 1.613,3.309 2.586,5.692 2.625,6.465 -26.453,4.657 -47.672,18.035 -62.91,26.024 3.418,-4.239 9.496,-8.43 18.254,-12.5 m 51.429,30.41 -9.515,0 c 0.566,3.293 1.043,6.441 1.453,9.465 0.406,2.984 0.617,5.734 0.617,8.215 0,5.461 -0.84,10.05 -2.508,13.789 -18.996,-1.481 -36.453,1.289 -49.98,3.004 -2.242,-1.84 -4.203,-3.883 -5.883,-6.114 -3.277,-4.379 -5.633,-9.316 -6.988,-14.789 -1.364,-5.488 -2.051,-10.832 -2.051,-16.043 0,-2.097 0.211,-4.09 0.629,-5.965 24.472,-11.359 43.816,-25.351 63.59,-26.726 0,0 6.722,19.734 9.679,31.195 0.328,1.297 0.653,2.629 0.957,3.969 m -14.597,37.941 c -4.16,3.75 -10.125,5.629 -17.918,5.629 -7.114,0 -13.231,-1.148 -18.364,-3.437 13.223,-1.543 25.332,-3.082 36.282,-2.192 m 1.203,71.551 c -22.781,-14.441 -47.61,-18.812 -64.262,-23.215 -21.703,-5.715 -39.078,-13.168 -64.699,-35.355 1.68,-4.141 2.988,-8.481 3.871,-12.973 4.125,0.133 9.84,0.504 17.598,1.313 4.867,7.91 10.621,14.839 17.25,20.75 10.14,9.031 21.929,15.808 35.351,20.339 13.43,4.532 27.676,6.801 42.762,6.801 0.219,0 0.406,-0.043 0.629,-0.043 l -0.031,0.043 17.808,0 c -2.308,11.348 -5.238,21.071 -6.277,22.34 M 438.793,434.465 c 6.242,9.965 9.855,21.746 9.855,34.375 0,3.277 -0.242,6.512 -0.714,9.66 l -9.141,-44.035 z m 16.184,-10.727 c 0.039,7.121 0.558,13.891 1.527,20.321 -1.977,0.093 -4.02,0.16 -6.117,0.222 -1.582,-4.269 -3.551,-8.351 -5.879,-12.191 2.547,-2.18 5.945,-4.934 10.469,-8.352 m -0.243,46.25 c 0.012,-0.386 0.024,-0.769 0.024,-1.16 0,-4.199 -0.371,-8.32 -1.07,-12.32 1.441,-0.496 3.097,-1.059 4.988,-1.66 1.39,5.511 3.172,10.742 5.351,15.683 0.45,1.028 0.911,2.028 1.387,3.028 -3.398,-1.047 -6.945,-2.239 -10.68,-3.571 m 79.813,148.723 c -16.024,-21.707 -37.598,-34.762 -51.527,-44.863 -18.184,-13.18 -31.704,-26.399 -47.567,-56.368 3.094,-3.281 5.875,-6.859 8.293,-10.679 6.067,2.57 15.649,7.14 30.192,15.191 36.675,20.367 74.175,18.875 95.796,36.004 0,0 -8.339,19.113 -13.859,29.582 -7.699,14.485 -19.316,29.973 -21.328,31.133 m -64.32,44.332 c -7.114,-26.02 -22.5,-45.98 -31.852,-60.445 -12.187,-18.848 -20.012,-36.059 -23.98,-69.727 4.089,-1.965 7.972,-4.301 11.589,-6.98 4.735,4.589 12.012,12.297 22.672,25.062 26.84,32.266 62.352,44.418 76.321,68.199 0,0 -14.688,14.809 -23.622,22.578 -12.417,10.719 -28.839,20.961 -31.128,21.313 m -62.532,-378.539 -5.539,-26.762 c 5.481,-0.074 9.43,0.129 10.34,0.512 -2.66,8.934 -4.078,17.781 -4.801,26.25 m -53.5,391.285 c -16.406,-0.437 -35.449,-3.93 -37.371,-5.226 12.281,-24.004 14.352,-49.141 17.192,-66.106 3.687,-22.148 9.507,-40.137 29.25,-67.687 4.269,1.293 8.711,2.191 13.281,2.648 0.387,6.582 0.578,17.191 -0.152,33.789 -1.879,41.926 16.14,74.824 10.453,101.813 0,0 -20.84,1.05 -32.653,0.769 m -72.781,-24.672 c -15.129,-6.336 -31.617,-16.476 -32.945,-18.379 20.117,-17.957 31.136,-40.636 39.914,-55.437 11.461,-19.321 23.375,-33.988 51.746,-52.531 3.547,2.769 7.355,5.21 11.398,7.281 -2,6.269 -5.672,16.222 -12.332,31.422 -16.898,38.418 -11.976,75.609 -27.039,98.718 0,0 -19.82,-6.55 -30.742,-11.074 m -58.918,-49.316 c -11.82,-11.371 -23.543,-26.774 -24.09,-29.031 25.262,-9.469 43.699,-26.641 57.246,-37.274 17.653,-13.863 34.067,-23.234 67.203,-30.285 2.333,3.891 5.02,7.539 8.028,10.898 -4.137,5.129 -11.149,13.082 -22.863,24.852 -29.637,29.719 -38.473,66.156 -60.872,82.281 0,0 -16.125,-13.269 -24.652,-21.441 M 173.383,498.762 c 26.965,0.297 50.383,-9.059 66.844,-14.071 21.468,-6.562 40.148,-9.359 73.601,-3.957 0.758,4.516 1.949,8.883 3.531,13.067 -5.722,3.289 -15.125,8.168 -30.273,14.91 -38.371,16.996 -59.789,47.789 -86.488,54.719 0,0 -10.223,-18.18 -15.243,-28.891 -6.91,-14.871 -12.281,-33.469 -11.972,-35.777 m 3.402,-78.039 c 25.039,10 50.262,9.734 67.41,11.015 22.391,1.641 40.828,5.801 70.063,22.891 -0.895,4.359 -1.371,8.871 -1.422,13.48 -6.508,1 -17.051,2.161 -33.633,2.961 -41.906,1.973 -72.988,22.969 -100.398,19.782 0,0 -2.969,-20.661 -3.782,-32.454 -1.07,-16.367 0.629,-35.644 1.762,-37.675 m 128.18,-20.633 c -32.336,-26.75 -69.5,-32.168 -87.586,-52.934 0,0 11.687,-17.293 19.035,-26.543 10.242,-12.832 24.492,-25.925 26.684,-26.707 11.761,24.289 30.578,41.067 42.437,53.555 15.449,16.269 26.301,31.738 36.414,64.062 -3.664,2.676 -7.051,5.696 -10.133,9.004 -5.488,-3.632 -14.062,-9.875 -26.851,-20.437 m -96.906,-50.754 c 19.73,18.391 43.336,27.246 58.91,34.59 20.297,9.609 35.976,20.117 57.09,46.594 -2.442,3.789 -4.524,7.82 -6.211,12.058 -6.442,-1.406 -16.68,-4.133 -32.403,-9.344 -39.808,-13.261 -76.429,-4.894 -100.812,-17.738 0,0 4.652,-20.359 8.195,-31.609 4.899,-15.672 13.445,-33.028 15.231,-34.551 m 186.156,331.801 c 2.793,-26.824 -4.356,-50.996 -7.836,-67.856 -4.563,-21.98 -5.633,-40.859 2.824,-73.691 4.582,-0.352 9.035,-1.129 13.332,-2.309 2.754,6 6.75,15.821 12.07,31.547 13.383,39.789 42.079,63.949 46.532,91.16 0,0 -19.051,8.512 -30.168,12.532 -15.449,5.511 -34.477,9.132 -36.754,8.617 M 604.117,444.629 c -2.09,-19.109 -6.613,-37.5 -13.262,-54.844 3.36,-1.926 6.442,-3.887 9.243,-5.879 7.519,19.129 12.57,39.5 14.769,60.723 l -10.75,0"
             style="fill:#ffffff;fill-opacity:1;fill-rule:nonzero;stroke:none"
             id="path3053"
             inkscape:connector-curvature="0" /><path
             d="m 607.5,531.781 10.172,0 C 589.973,634.988 495.77,710.973 383.824,710.973 c -133.691,0 -242.09,-108.395 -242.09,-242.102 0,-117.035 83.047,-214.66 193.418,-237.191 l 1.989,9.597 c -105.911,21.614 -185.61,115.293 -185.61,227.594 0,128.285 104.012,232.313 232.293,232.313 106.496,0 196.25,-71.672 223.676,-169.403 m -268.187,-280.023 3.519,16.98 c 0.137,7.621 2.063,15.371 4.867,23.481 l 7.606,36.687 c -0.203,-0.508 -0.41,-1.023 -0.621,-1.535 -6.543,-15.933 -18.024,-38.367 -20.211,-65.254 -2.332,-0.066 -20.352,6.985 -34.539,15.278 -10.192,5.945 -27.34,17.859 -27.34,17.859 9.371,25.898 42.058,44.363 62.539,80.996 8.097,14.453 13.828,23.359 17.64,28.738 4.04,-1.961 8.286,-3.562 12.711,-4.734 0.477,-7.195 0.649,-13.672 0.536,-19.649 l 5.093,24.583 c -29.761,5.917 -52.183,32.183 -52.183,63.652 0,35.816 29.031,64.859 64.871,64.859 4.679,0 9.25,-0.5 13.648,-1.437 l 0.422,-0.059 c 20.68,-4.57 37.598,-18.996 45.668,-38.094 0.012,-0.015 0.02,-0.039 0.031,-0.062 0.59,-1.387 1.121,-2.797 1.61,-4.238 0.058,-0.168 0.125,-0.34 0.179,-0.508 0.231,-0.723 0.461,-1.442 0.672,-2.172 0.067,-0.231 0.141,-0.449 0.199,-0.68 0.114,-0.398 0.219,-0.801 0.325,-1.199 0.078,-0.27 0.144,-0.559 0.207,-0.84 0.156,-0.621 0.301,-1.242 0.441,-1.871 0.059,-0.297 0.117,-0.601 0.18,-0.887 0.078,-0.402 0.156,-0.793 0.23,-1.183 0.047,-0.297 0.098,-0.602 0.145,-0.899 0.062,-0.351 0.133,-0.687 0.18,-1.039 L 447.93,478.5 c 0.472,-3.148 0.722,-6.383 0.722,-9.66 0,-12.629 -3.613,-24.41 -9.851,-34.375 l -2.848,-13.731 c 0.356,0.387 0.707,0.77 1.059,1.168 6.949,-2.898 13.07,-5.757 18.539,-8.64 -0.379,3.058 -0.578,6.25 -0.578,9.582 0,0.301 0.007,0.594 0.007,0.894 -4.519,3.418 -7.929,6.172 -10.468,8.352 2.328,3.84 4.297,7.922 5.871,12.191 2.105,-0.062 4.148,-0.129 6.125,-0.222 0.57,3.711 1.297,7.304 2.176,10.789 -1.903,0.601 -3.563,1.164 -5,1.66 0.695,4 1.066,8.121 1.066,12.32 0,0.391 -0.008,0.774 -0.008,1.16 3.731,1.332 7.27,2.524 10.68,3.571 1.707,3.621 3.578,7.05 5.59,10.332 -7.75,-0.809 -13.461,-1.18 -17.59,-1.313 -0.895,4.492 -2.192,8.832 -3.879,12.973 25.629,22.187 43.008,29.64 64.711,35.355 16.648,4.403 41.469,8.774 64.246,23.215 1.051,-1.269 3.973,-10.992 6.281,-22.34 l 11.571,0 C 569.172,623.43 484.18,690.48 383.824,690.48 c -122.191,0 -221.601,-99.41 -221.601,-221.609 0,-106.937 76.156,-196.449 177.09,-217.113 M 175.02,458.398 c 0.808,11.793 3.781,32.454 3.781,32.454 27.41,3.187 58.5,-17.809 100.41,-19.782 16.578,-0.8 27.113,-1.961 33.633,-2.961 0.039,-4.609 0.523,-9.121 1.41,-13.48 -29.227,-17.09 -47.672,-21.25 -70.055,-22.891 -17.16,-1.281 -42.367,-1.015 -67.406,-11.015 -1.133,2.031 -2.832,21.308 -1.773,37.675 m 10.332,76.141 c 5.019,10.711 15.25,28.891 15.25,28.891 26.699,-6.93 48.109,-37.723 86.476,-54.719 15.152,-6.742 24.563,-11.621 30.27,-14.902 -1.567,-4.192 -2.758,-8.559 -3.516,-13.075 -33.461,-5.402 -52.144,-2.605 -73.602,3.957 -16.468,5.012 -39.886,14.368 -66.851,14.071 -0.297,2.308 5.074,20.906 11.973,35.777 M 435.449,517.48 c 15.875,29.969 29.391,43.188 47.574,56.368 13.918,10.101 35.497,23.156 51.52,44.863 2.02,-1.16 13.625,-16.648 21.336,-31.133 5.512,-10.469 13.851,-29.582 13.851,-29.582 -21.621,-17.129 -59.121,-15.637 -95.789,-36.004 -14.55,-8.051 -24.132,-12.621 -30.191,-15.191 -2.426,3.82 -5.211,7.398 -8.301,10.679 m -21.058,15.391 c 3.968,33.668 11.793,50.879 23.988,69.727 9.34,14.465 24.73,34.425 31.851,60.445 2.29,-0.352 18.711,-10.594 31.133,-21.313 8.918,-7.769 23.61,-22.578 23.61,-22.578 -13.961,-23.781 -49.469,-35.933 -76.321,-68.199 -10.648,-12.765 -17.937,-20.473 -22.672,-25.062 -3.609,2.679 -7.488,5.015 -11.589,6.98 m -28.008,80.41 c 3.465,16.86 10.621,41.032 7.836,67.856 2.269,0.515 21.304,-3.106 36.754,-8.617 11.105,-4.02 30.16,-12.532 30.16,-12.532 -4.445,-27.211 -33.141,-51.371 -46.531,-91.16 -5.321,-15.726 -9.321,-25.547 -12.075,-31.547 -4.285,1.18 -8.738,1.957 -13.316,2.309 -8.457,32.832 -7.391,51.711 -2.828,73.691 M 363.27,536.77 c -19.739,27.55 -25.559,45.539 -29.262,67.687 -2.836,16.965 -4.906,42.102 -17.176,66.106 1.918,1.296 20.949,4.789 37.356,5.226 11.824,0.281 32.664,-0.769 32.664,-0.769 5.687,-26.989 -12.34,-59.887 -10.45,-101.813 0.715,-16.598 0.539,-27.207 0.141,-33.789 -4.563,-0.457 -9.004,-1.355 -13.273,-2.648 m -74.879,40.531 c -8.789,14.801 -19.813,37.48 -39.918,55.437 1.328,1.903 17.816,12.043 32.949,18.379 10.918,4.524 30.742,11.074 30.742,11.074 15.059,-23.109 10.137,-60.3 27.024,-98.718 6.671,-15.2 10.332,-25.153 12.343,-31.422 -4.043,-2.071 -7.847,-4.512 -11.398,-7.281 -28.371,18.543 -40.293,33.21 -51.742,52.531 M 255.66,535.496 c -13.558,10.633 -32,27.805 -57.258,37.274 0.559,2.257 12.278,17.66 24.086,29.031 8.543,8.172 24.664,21.441 24.664,21.441 22.387,-16.125 31.227,-52.562 60.871,-82.281 11.707,-11.77 18.719,-19.723 22.856,-24.852 -2.996,-3.359 -5.688,-7.007 -8.02,-10.898 -33.136,7.051 -49.546,16.422 -67.199,30.285 M 324.055,430.52 c -21.117,-26.477 -36.785,-36.985 -57.09,-46.594 -15.563,-7.344 -39.184,-16.199 -58.902,-34.59 -1.786,1.523 -10.333,18.879 -15.243,34.551 -3.527,11.25 -8.179,31.609 -8.179,31.609 24.382,12.844 61,4.477 100.797,17.738 15.734,5.211 25.972,7.938 32.414,9.344 1.687,-4.238 3.769,-8.269 6.203,-12.058 M 236.422,320.613 c -7.359,9.25 -19.039,26.543 -19.039,26.543 18.086,20.766 55.25,26.184 87.578,52.934 12.789,10.562 21.363,16.805 26.859,20.437 3.082,-3.308 6.473,-6.328 10.133,-9.004 -10.121,-32.324 -20.961,-47.793 -36.41,-64.062 -11.859,-12.488 -30.68,-29.266 -42.441,-53.555 -2.188,0.782 -16.454,13.875 -26.68,26.707 m 135.687,89.367 1.082,5.208 c -25.089,4.949 -44.07,27.121 -44.07,53.652 0,30.14 24.524,54.66 54.668,54.66 3.984,0 7.852,-0.43 11.594,-1.238 l 1.078,5.211 c -4.078,0.879 -8.32,1.336 -12.672,1.336 -33.129,0 -59.988,-26.84 -59.988,-59.969 0,-29.133 20.769,-53.418 48.308,-58.86 m 2.95,14.219 1.086,5.227 c -18.485,3.582 -32.485,19.875 -32.485,39.402 0,22.145 18,40.141 40.141,40.141 2.961,0 5.851,-0.332 8.633,-0.938 l 1.078,5.223 c -3.129,0.676 -6.383,1.039 -9.711,1.039 -25.11,0 -45.473,-20.352 -45.473,-45.465 0,-22.121 15.805,-40.547 36.731,-44.629 m 22.793,-187.187 -2.059,-9.934 c 18.871,0.918 37.168,4.008 54.656,8.996 -3.539,1.785 -6.699,3.828 -9.457,6.121 -0.449,0.383 -0.89,0.766 -1.32,1.157 -13.512,-3.332 -27.488,-5.481 -41.82,-6.34 m 20.746,28.593 c -5.746,13.926 -4.86,30.887 -4.426,50.071 l -6.473,-31.172 c 0.715,-8.469 2.141,-17.316 4.789,-26.25 -0.894,-0.383 -4.855,-0.586 -10.336,-0.512 l -2.05,-9.883 c 10.812,0.793 21.421,2.368 31.75,4.653 -2.77,4.234 -4.879,8.953 -6.414,14.058 -4.067,-0.593 -6.84,-0.965 -6.84,-0.965 m 11.363,126.243 c 14.68,-16.653 21.594,-30.508 27.652,-47.168 5.899,-16.196 12.559,-40.489 29.028,-61.836 l 0.007,-0.012 3.875,-5.293 c 0.61,-0.613 1.29,-1.191 2.016,-1.726 24.723,13.972 46.504,32.554 64.18,54.578 -1.707,3.664 -4.246,6.867 -7.61,9.621 -0.961,0.789 -2.019,1.582 -3.148,2.371 -2.781,1.347 -5.449,2.969 -8.039,4.836 -5.328,2.82 -11.75,5.625 -19.27,8.418 7.871,-8.149 17.11,-16.36 28.246,-23.098 -0.945,-2.098 -15.316,-15.078 -29.027,-24.101 -9.902,-6.465 -28.168,-16.524 -28.168,-16.524 -19.043,19.941 -21.019,57.434 -44.676,92.109 -5.437,7.981 -9.535,14.383 -12.644,19.504 l -2.422,-11.679 z m 75.621,-120.832 c 2.949,-0.45 6.219,-0.672 9.816,-0.672 2.711,0 5.454,0.301 8.247,0.867 11.66,8.273 22.554,17.539 32.578,27.687 2.019,5.274 3.07,11.219 3.148,17.84 -15.461,-17.832 -33.601,-33.281 -53.789,-45.722 m 76.359,205.082 c -1.148,2.562 -2.687,4.722 -4.632,6.472 -10.957,-0.89 -23.067,0.649 -36.289,2.192 -0.61,-0.278 -1.211,-0.563 -1.79,-0.871 -2.675,-1.411 -5.097,-3.012 -7.257,-4.789 13.531,-1.715 30.976,-4.485 49.968,-3.004 m 3.192,-75.403 c -0.051,-0.773 -1.012,-3.156 -2.633,-6.465 2.961,-1.457 5.742,-2.941 8.352,-4.445 6.648,17.344 11.179,35.735 13.269,54.844 l -12.223,0 c -0.296,-1.34 -0.621,-2.672 -0.945,-3.969 -2.961,-11.461 -9.683,-31.195 -9.683,-31.195 -19.77,1.375 -39.118,15.367 -63.598,26.726 0.781,-3.527 2.277,-6.668 4.512,-9.433 0.007,-0.012 0.019,-0.028 0.027,-0.039 15.238,-7.989 36.473,-21.367 62.922,-26.024 m 29.738,43.934 c -2.199,-21.223 -7.258,-41.594 -14.777,-60.723 2.969,-2.109 5.629,-4.265 7.976,-6.457 8.602,21.067 14.313,43.633 16.653,67.18 l -9.852,0"
             style="fill:#000000;fill-opacity:1;fill-rule:nonzero;stroke:none"
             id="path3055"
             inkscape:connector-curvature="0" /><path
             d="m 908.328,298.176 0,-11.809 15.602,0 0,-59.597 14.398,0 0,59.597 15.602,0 0,11.809 -45.602,0 z m 73.797,-71.406 13.195,0 0,53.804 -13.797,0 0,-35.703 c 0,-5.926 -2.429,-8.894 -7.3,-8.894 -2.071,0 -3.571,0.546 -4.5,1.64 -0.93,1.106 -1.403,3.059 -1.403,5.86 l 0,37.097 -13.8,0 0,-39.898 c 0,-5.403 1.183,-9.309 3.55,-11.699 2.375,-2.407 5.754,-3.606 10.153,-3.606 3,0 5.668,0.625 8,1.856 2.328,1.218 4.23,3.175 5.703,5.847 l 0.199,0 0,-6.304 z m 22.995,0 13.8,0 0,32.3 c 0,1.797 0.3,3.325 0.9,4.551 0.6,1.234 1.4,2.231 2.4,3 1,0.774 2.1,1.32 3.3,1.652 1.2,0.332 2.4,0.497 3.6,0.497 0.73,0 1.45,-0.02 2.15,-0.047 0.7,-0.032 1.42,-0.078 2.15,-0.149 l 0,13.196 c -0.4,0.078 -0.82,0.125 -1.25,0.156 -0.43,0.027 -0.85,0.047 -1.25,0.047 -2.87,0 -5.3,-0.782 -7.3,-2.356 -2,-1.558 -3.7,-3.64 -5.1,-6.25 l -0.2,0 0,7.207 -13.2,0 0,-53.804 z m 34.36,0 13.2,0 0,5.703 0.2,0 c 1.53,-2.532 3.25,-4.348 5.15,-5.45 1.9,-1.105 4.25,-1.652 7.05,-1.652 5.66,0 9.83,2.219 12.5,6.652 2.66,4.43 4,11.649 4,21.649 0,10 -1.34,17.219 -4,21.648 -2.67,4.438 -6.84,6.653 -12.5,6.653 -2.6,0 -4.82,-0.528 -6.65,-1.602 -1.84,-1.062 -3.49,-2.668 -4.95,-4.797 l -0.2,0 0,22.602 -13.8,0 0,-71.406 z m 15.15,40.156 c 0.9,2.969 2.88,4.441 5.95,4.441 3,0 4.95,-1.472 5.85,-4.441 0.9,-2.973 1.35,-7.383 1.35,-13.254 0,-5.867 -0.45,-10.281 -1.35,-13.25 -0.9,-2.973 -2.85,-4.445 -5.85,-4.445 -3.07,0 -5.05,1.472 -5.95,4.445 -0.9,2.969 -1.35,7.383 -1.35,13.25 0,5.871 0.45,10.281 1.35,13.254 m 34.86,-25.656 c 0.66,-3.528 1.8,-6.493 3.4,-8.899 1.6,-2.398 3.76,-4.176 6.5,-5.348 2.73,-1.171 6.16,-1.718 10.3,-1.652 3.93,0 7.25,0.625 9.95,1.856 2.7,1.218 4.88,3.027 6.55,5.39 1.66,2.371 2.86,5.324 3.6,8.86 0.73,3.523 1.1,7.593 1.1,12.195 0,4.668 -0.34,8.777 -1,12.355 -0.67,3.563 -1.8,6.543 -3.4,8.946 -1.6,2.398 -3.77,4.179 -6.5,5.347 -2.74,1.172 -6.17,1.719 -10.3,1.653 -3.94,0 -7.25,-0.625 -9.95,-1.856 -2.7,-1.219 -4.89,-3.027 -6.55,-5.39 -1.67,-2.372 -2.87,-5.325 -3.6,-8.86 -0.74,-3.523 -1.1,-7.594 -1.1,-12.195 0,-4.727 0.33,-8.867 1,-12.402 m 13,20 c 0.13,2.335 0.45,4.335 0.95,6.007 0.5,1.668 1.23,2.965 2.2,3.895 0.96,0.93 2.31,1.398 4.05,1.398 2.8,0 4.73,-1.465 5.8,-4.394 1.06,-2.934 1.6,-7.774 1.6,-14.504 0,-6.727 -0.54,-11.57 -1.6,-14.5 -1.07,-2.934 -3,-4.395 -5.8,-4.395 -1.74,0 -3.09,0.465 -4.05,1.395 -0.97,0.93 -1.7,2.226 -2.2,3.898 -0.5,1.668 -0.82,3.668 -0.95,6.004 -0.14,2.324 -0.2,4.864 -0.2,7.598 0,2.734 0.06,5.273 0.2,7.598 m 36.45,-34.5 13.8,0 0,35.398 c 0,3.203 0.65,5.535 1.95,7.004 1.3,1.473 3.05,2.195 5.25,2.195 1.93,0 3.31,-0.594 4.15,-1.797 0.83,-1.203 1.25,-2.929 1.25,-5.195 l 0,-37.605 13.8,0 0,35.398 c 0,3.203 0.65,5.535 1.95,7.004 1.3,1.473 3.05,2.195 5.25,2.195 1.93,0 3.31,-0.594 4.15,-1.797 0.83,-1.203 1.25,-2.929 1.25,-5.195 l 0,-37.605 13.8,0 0,39.097 c 0,5.207 -1.09,9.184 -3.25,11.953 -2.17,2.778 -5.55,4.153 -10.15,4.153 -3.27,0 -6.09,-0.723 -8.45,-2.149 -2.37,-1.433 -4.09,-3.586 -5.15,-6.457 l -0.2,0 c -0.74,2.805 -2.19,4.934 -4.35,6.41 -2.17,1.461 -4.85,2.196 -8.05,2.196 -3,0 -5.59,-0.528 -7.75,-1.602 -2.17,-1.062 -4.12,-2.832 -5.85,-5.301 l -0.2,0 0,5.504 -13.2,0 0,-53.804 z m 88.43,37.3 0,1.504 c 0,2.129 0.53,3.828 1.6,5.102 1.06,1.269 2.66,1.894 4.8,1.894 2.33,0 3.98,-0.578 4.95,-1.75 0.96,-1.172 1.45,-2.773 1.45,-4.843 0,-1.805 -0.4,-3.172 -1.2,-4.102 -0.8,-0.937 -2.24,-1.672 -4.3,-2.207 l -7.8,-2.098 c -2.4,-0.668 -4.45,-1.425 -6.15,-2.297 -1.7,-0.871 -3.1,-1.953 -4.2,-3.25 -1.1,-1.3 -1.92,-2.871 -2.45,-4.699 -0.54,-1.836 -0.8,-4.023 -0.8,-6.551 0,-1.796 0.23,-3.625 0.7,-5.453 0.46,-1.824 1.2,-3.472 2.2,-4.949 1,-1.465 2.33,-2.668 4,-3.601 1.66,-0.93 3.7,-1.399 6.1,-1.399 3.33,0 6.05,0.469 8.15,1.399 2.1,0.933 3.95,2.8 5.55,5.601 l 0.2,0 c 0.2,-0.926 0.41,-1.883 0.65,-2.848 0.23,-0.968 0.58,-1.875 1.05,-2.753 l 13.2,0 c -0.67,1.597 -1.12,3.101 -1.35,4.5 -0.24,1.406 -0.35,3.371 -0.35,5.898 l 0,28.301 c 0,2.402 -0.25,4.621 -0.75,6.648 -0.5,2.035 -1.45,3.781 -2.85,5.254 -1.4,1.469 -3.39,2.602 -5.95,3.402 -2.57,0.797 -5.89,1.2 -9.95,1.2 -2.6,0 -5.05,-0.282 -7.35,-0.852 -2.3,-0.562 -4.3,-1.504 -6,-2.801 -1.7,-1.297 -3.05,-3.015 -4.05,-5.144 -1,-2.129 -1.5,-4.738 -1.5,-7.805 l 0,-1.301 12.4,0 z m 12.8,-20.996 c 0,-1.531 -0.27,-2.82 -0.8,-3.855 -0.54,-1.024 -1.22,-1.875 -2.05,-2.547 -0.84,-0.664 -1.75,-1.152 -2.75,-1.445 -1,-0.305 -1.97,-0.45 -2.9,-0.45 -1.87,0 -3.2,0.719 -4,2.196 -0.8,1.465 -1.2,3.23 -1.2,5.304 0,2.391 0.6,4.293 1.8,5.692 1.2,1.406 3.2,2.402 6,3.008 0.86,0.195 1.83,0.515 2.9,0.949 1.06,0.429 2.06,1.015 3,1.746 l 0,-10.598 z m 21.14,1.301 0,-1.902 c 0,-2.602 0.3,-4.953 0.9,-7.051 0.6,-2.102 1.65,-3.899 3.15,-5.402 1.5,-1.493 3.51,-2.649 6.05,-3.45 2.53,-0.797 5.76,-1.199 9.7,-1.199 2.86,0 5.53,0.352 8,1.055 2.46,0.691 4.58,1.75 6.35,3.144 1.76,1.407 3.15,3.172 4.15,5.301 1,2.133 1.5,4.602 1.5,7.406 0,4.063 -0.9,7.274 -2.7,9.649 -1.8,2.371 -4.87,4.273 -9.2,5.75 l -8.3,2.793 c -2.34,0.73 -3.92,1.633 -4.75,2.707 -0.84,1.062 -1.25,2.265 -1.25,3.594 0,1.929 0.65,3.386 1.95,4.351 1.3,0.969 2.81,1.449 4.55,1.449 2.26,0 3.85,-0.644 4.75,-1.945 0.9,-1.301 1.35,-3.348 1.35,-6.152 l 12.4,0 0,2.199 c 0,4.871 -1.5,8.633 -4.5,11.297 -3,2.676 -7.64,4.004 -13.9,4.004 -3.54,0 -6.55,-0.43 -9.05,-1.297 -2.5,-0.871 -4.55,-2.031 -6.15,-3.508 -1.6,-1.465 -2.77,-3.176 -3.5,-5.145 -0.74,-1.972 -1.1,-4.054 -1.1,-6.25 0,-3.8 0.96,-6.925 2.9,-9.347 1.93,-2.434 4.8,-4.324 8.6,-5.653 l 9.7,-3.496 c 1.33,-0.539 2.5,-1.25 3.5,-2.16 1,-0.898 1.5,-2.215 1.5,-3.945 0,-2.129 -0.64,-3.731 -1.9,-4.805 -1.27,-1.062 -2.97,-1.59 -5.1,-1.59 -2.34,0 -4.12,0.711 -5.35,2.149 -1.24,1.426 -1.85,3.316 -1.85,5.644 l 0,1.805 -12.4,0 z m 86.72,16.797 c 0,6.398 -1.62,11.476 -4.85,15.195 -3.24,3.731 -8.05,5.606 -14.45,5.606 -3.2,0 -6.14,-0.43 -8.8,-1.297 -2.67,-0.871 -4.97,-2.387 -6.9,-4.555 -1.94,-2.168 -3.44,-5.066 -4.5,-8.699 -1.07,-3.633 -1.6,-8.223 -1.6,-13.75 0,-5.399 0.43,-9.922 1.3,-13.555 0.86,-3.625 2.15,-6.523 3.85,-8.691 1.7,-2.18 3.83,-3.723 6.4,-4.656 2.56,-0.93 5.58,-1.399 9.05,-1.399 7.33,0 12.58,1.906 15.75,5.703 3.16,3.797 4.75,9.231 4.75,16.297 l -13.2,0 c 0,-4.402 -0.54,-7.594 -1.6,-9.598 -1.07,-2 -2.77,-2.996 -5.1,-2.996 -1.54,0 -2.79,0.34 -3.75,1.043 -0.97,0.703 -1.72,1.828 -2.25,3.352 -0.54,1.531 -0.9,3.484 -1.1,5.848 -0.2,2.375 -0.3,5.222 -0.3,8.554 0,3.067 0.1,5.774 0.3,8.098 0.2,2.332 0.56,4.246 1.1,5.75 0.53,1.504 1.31,2.629 2.35,3.398 1.03,0.774 2.41,1.153 4.15,1.153 1.26,0 2.31,-0.321 3.15,-0.946 0.83,-0.636 1.46,-1.476 1.9,-2.5 0.43,-1.039 0.73,-2.207 0.9,-3.507 0.16,-1.297 0.25,-2.579 0.25,-3.848 l 13.2,0 z m 7.89,-34.402 13.8,0 0,35.703 c 0,5.925 2.44,8.894 7.3,8.894 2.07,0 3.57,-0.547 4.5,-1.64 0.94,-1.106 1.4,-3.055 1.4,-5.86 l 0,-37.097 13.8,0 0,39.902 c 0,5.398 -1.18,9.305 -3.55,11.695 -2.36,2.406 -5.75,3.606 -10.15,3.606 -6.06,0 -10.43,-2.305 -13.1,-6.903 l -0.2,0 0,23.106 -13.8,0 0,-71.406 z m 50.81,60.398 13.8,0 0,11.809 -13.8,0 0,-11.809 z m 0,-60.398 13.8,0 0,53.804 -13.8,0 0,-53.804 z m 23.85,0 13.8,0 0,35.703 c 0,5.925 2.44,8.894 7.3,8.894 2.07,0 3.57,-0.547 4.5,-1.64 0.94,-1.106 1.4,-3.055 1.4,-5.86 l 0,-37.097 13.8,0 0,39.902 c 0,5.398 -1.18,9.305 -3.55,11.695 -2.36,2.406 -5.75,3.606 -10.15,3.606 -3,0 -5.66,-0.625 -8,-1.856 -2.33,-1.219 -4.23,-3.172 -5.7,-5.847 l -0.2,0 0,6.304 -13.2,0 0,-53.804 z m 89.97,24.8 0,3.098 c 0,4.133 -0.26,7.883 -0.8,11.25 -0.53,3.379 -1.53,6.23 -3,8.605 -1.46,2.372 -3.48,4.2 -6.05,5.497 -2.56,1.3 -5.85,1.953 -9.85,1.953 -4.66,0 -8.4,-0.774 -11.2,-2.305 -2.8,-1.523 -4.95,-3.594 -6.45,-6.191 -1.5,-2.61 -2.5,-5.575 -3,-8.907 -0.5,-3.332 -0.75,-6.797 -0.75,-10.398 0,-3.332 0.15,-6.723 0.45,-10.149 0.3,-3.425 1.12,-6.535 2.45,-9.296 1.34,-2.774 3.4,-5.032 6.2,-6.758 2.8,-1.731 6.7,-2.598 11.7,-2.598 6.6,0 11.44,1.68 14.5,5.051 3.07,3.367 4.74,8.183 5,14.449 l -12.4,0 c -0.4,-3.394 -1.13,-5.926 -2.2,-7.594 -1.06,-1.672 -2.76,-2.5 -5.1,-2.5 -1.26,0 -2.33,0.34 -3.2,1.043 -0.86,0.703 -1.56,1.629 -2.1,2.801 -0.53,1.176 -0.91,2.5 -1.15,3.996 -0.23,1.504 -0.35,3.059 -0.35,4.66 l 0,4.293 27.3,0 z m -27.3,8.207 0,2.098 c 0,1.27 0.12,2.527 0.35,3.801 0.24,1.269 0.62,2.422 1.15,3.445 0.54,1.035 1.25,1.875 2.15,2.5 0.9,0.637 2.05,0.949 3.45,0.949 1.4,0 2.55,-0.273 3.45,-0.851 0.9,-0.567 1.6,-1.399 2.1,-2.5 0.5,-1.094 0.85,-2.422 1.05,-3.992 0.2,-1.575 0.34,-3.379 0.4,-5.45 l -14.1,0 z m 35.32,-33.007 13.8,0 0,35.703 c 0,5.925 2.44,8.894 7.3,8.894 2.07,0 3.57,-0.547 4.5,-1.64 0.94,-1.106 1.4,-3.055 1.4,-5.86 l 0,-37.097 13.8,0 0,39.902 c 0,5.398 -1.18,9.305 -3.55,11.695 -2.36,2.406 -5.75,3.606 -10.15,3.606 -3,0 -5.66,-0.625 -8,-1.856 -2.33,-1.219 -4.23,-3.172 -5.7,-5.847 l -0.2,0 0,6.304 -13.2,0 0,-53.804"
             style="fill:#00549f;fill-opacity:1;fill-rule:nonzero;stroke:none"
             id="path3057"
             inkscape:connector-curvature="0" /><path
             d="m 909.332,362.461 0,-2.898 c 0,-6.602 1.754,-11.719 5.246,-15.352 3.504,-3.637 9.324,-5.449 17.453,-5.449 7.805,0 13.883,1.765 18.25,5.301 4.371,3.527 6.551,9.062 6.551,16.589 0,2.207 -0.199,4.203 -0.602,6.008 -0.402,1.797 -1.117,3.449 -2.148,4.949 -1.031,1.496 -2.434,2.903 -4.199,4.204 -1.774,1.296 -3.981,2.546 -6.653,3.75 l -11.097,4.792 c -3.07,1.27 -5.07,2.657 -6,4.153 -0.934,1.504 -1.403,3.347 -1.403,5.555 0,1.066 0.125,2.097 0.352,3.093 0.231,0.996 0.672,1.875 1.301,2.649 0.629,0.769 1.476,1.386 2.547,1.855 1.07,0.469 2.402,0.695 4,0.695 2.8,0 4.804,-0.917 6,-2.746 1.203,-1.836 1.8,-4.453 1.8,-7.851 l 13.801,0 0,2.004 c 0,3.394 -0.547,6.316 -1.648,8.75 -1.102,2.429 -2.629,4.422 -4.602,5.996 -1.968,1.57 -4.297,2.703 -6.996,3.394 -2.699,0.707 -5.656,1.055 -8.851,1.055 -6.871,0 -12.274,-1.727 -16.204,-5.203 -3.929,-3.469 -5.898,-8.731 -5.898,-15.801 0,-2.93 0.371,-5.515 1.098,-7.742 0.734,-2.227 1.883,-4.199 3.453,-5.898 1.566,-1.704 3.519,-3.184 5.847,-4.454 2.333,-1.269 5.098,-2.433 8.301,-3.5 2.399,-0.796 4.422,-1.582 6.051,-2.351 1.633,-0.774 2.949,-1.621 3.949,-2.547 1.004,-0.93 1.723,-1.984 2.153,-3.156 0.425,-1.16 0.648,-2.547 0.648,-4.153 0,-2.996 -0.879,-5.211 -2.652,-6.648 -1.77,-1.426 -3.75,-2.149 -5.95,-2.149 -1.925,0 -3.5,0.274 -4.699,0.801 -1.195,0.528 -2.168,1.27 -2.902,2.199 -0.727,0.934 -1.227,2.079 -1.496,3.458 -0.27,1.367 -0.403,2.878 -0.403,4.546 l 0,2.102 -14.398,0 z m 58.691,31.492 -7.003,0 0,-9.39 7.003,0 0,-30.801 c 0,-2.735 0.168,-5 0.497,-6.809 0.332,-1.797 0.953,-3.242 1.851,-4.344 0.899,-1.105 2.184,-1.875 3.852,-2.355 1.672,-0.469 3.867,-0.691 6.597,-0.691 1.602,0 3.121,0.066 4.551,0.195 1.43,0.137 2.922,0.269 4.453,0.398 l 0,9.602 c -0.472,-0.07 -0.972,-0.117 -1.504,-0.149 -0.527,-0.031 -1.07,-0.046 -1.597,-0.046 -2,0 -3.321,0.449 -3.95,1.343 -0.628,0.903 -0.953,2.422 -0.953,4.555 l 0,29.102 8.004,0 0,9.39 -8.004,0 0,15.402 -13.797,0 0,-15.402 z m 27.879,-53.797 13.798,0 0,32.305 c 0,1.797 0.3,3.32 0.9,4.551 0.6,1.23 1.4,2.226 2.4,3 1,0.769 2.1,1.316 3.3,1.648 1.2,0.332 2.4,0.496 3.6,0.496 0.73,0 1.45,-0.015 2.15,-0.047 0.7,-0.031 1.41,-0.078 2.15,-0.156 l 0,13.203 c -0.4,0.071 -0.82,0.117 -1.25,0.157 -0.44,0.031 -0.85,0.046 -1.25,0.046 -2.87,0 -5.3,-0.781 -7.3,-2.351 -2,-1.57 -3.7,-3.653 -5.1,-6.25 l -0.2,0 0,7.195 -13.198,0 0,-53.797 z m 46.708,37.305 0,1.492 c 0,2.133 0.53,3.828 1.6,5.11 1.06,1.269 2.66,1.894 4.8,1.894 2.33,0 3.98,-0.574 4.95,-1.746 0.96,-1.176 1.45,-2.785 1.45,-4.856 0,-1.796 -0.4,-3.164 -1.2,-4.101 -0.8,-0.93 -2.24,-1.668 -4.3,-2.195 l -7.8,-2.102 c -2.4,-0.676 -4.45,-1.426 -6.15,-2.297 -1.7,-0.879 -3.1,-1.949 -4.2,-3.25 -1.1,-1.301 -1.92,-2.871 -2.45,-4.707 -0.54,-1.824 -0.8,-4.012 -0.8,-6.543 0,-1.805 0.23,-3.625 0.7,-5.449 0.46,-1.836 1.2,-3.484 2.2,-4.949 1,-1.477 2.33,-2.676 4,-3.606 1.66,-0.926 3.7,-1.394 6.1,-1.394 3.33,0 6.05,0.468 8.15,1.394 2.1,0.93 3.95,2.805 5.55,5.606 l 0.2,0 c 0.2,-0.938 0.41,-1.883 0.65,-2.852 0.23,-0.976 0.58,-1.883 1.05,-2.754 l 13.2,0 c -0.67,1.602 -1.12,3.106 -1.35,4.5 -0.24,1.399 -0.35,3.371 -0.35,5.903 l 0,28.3 c 0,2.403 -0.25,4.618 -0.75,6.649 -0.5,2.031 -1.45,3.777 -2.85,5.254 -1.4,1.465 -3.39,2.597 -5.95,3.398 -2.57,0.801 -5.89,1.199 -9.95,1.199 -2.6,0 -5.05,-0.281 -7.35,-0.847 -2.3,-0.574 -4.3,-1.504 -6,-2.801 -1.7,-1.301 -3.05,-3.02 -4.05,-5.148 -1,-2.137 -1.5,-4.739 -1.5,-7.801 l 0,-1.301 12.4,0 z m 12.8,-21.008 c 0,-1.519 -0.27,-2.808 -0.8,-3.844 -0.54,-1.027 -1.22,-1.875 -2.05,-2.55 -0.84,-0.672 -1.75,-1.153 -2.75,-1.454 -1,-0.292 -1.97,-0.453 -2.9,-0.453 -1.87,0 -3.2,0.735 -4,2.207 -0.8,1.465 -1.2,3.227 -1.2,5.293 0,2.407 0.6,4.309 1.8,5.707 1.2,1.395 3.2,2.403 6,2.996 0.86,0.208 1.83,0.528 2.9,0.958 1.06,0.429 2.06,1.015 3,1.75 l 0,-10.61 z m 23.26,-16.297 13.8,0 0,35.703 c 0,5.926 2.43,8.899 7.3,8.899 2.06,0 3.56,-0.547 4.5,-1.653 0.93,-1.093 1.4,-3.046 1.4,-5.847 l 0,-37.102 13.8,0 0,39.903 c 0,5.402 -1.19,9.296 -3.55,11.699 -2.37,2.402 -5.75,3.601 -10.15,3.601 -6.07,0 -10.44,-2.3 -13.1,-6.902 l -0.2,0 0,23.106 -13.8,0 0,-71.407 z m 50.81,0 13.8,0 0,71.407 -13.8,0 0,-71.407 z m 36.16,37.305 0,1.492 c 0,2.133 0.53,3.828 1.6,5.11 1.06,1.269 2.66,1.894 4.8,1.894 2.33,0 3.98,-0.574 4.95,-1.746 0.96,-1.176 1.45,-2.785 1.45,-4.856 0,-1.796 -0.4,-3.164 -1.2,-4.101 -0.8,-0.93 -2.24,-1.668 -4.3,-2.195 l -7.8,-2.102 c -2.4,-0.676 -4.45,-1.426 -6.15,-2.297 -1.7,-0.879 -3.1,-1.949 -4.2,-3.25 -1.1,-1.301 -1.92,-2.871 -2.45,-4.707 -0.54,-1.824 -0.8,-4.012 -0.8,-6.543 0,-1.805 0.23,-3.625 0.7,-5.449 0.46,-1.836 1.2,-3.484 2.2,-4.949 1,-1.477 2.33,-2.676 4,-3.606 1.66,-0.926 3.7,-1.394 6.1,-1.394 3.33,0 6.05,0.468 8.15,1.394 2.1,0.93 3.95,2.805 5.55,5.606 l 0.2,0 c 0.2,-0.938 0.41,-1.883 0.65,-2.852 0.23,-0.976 0.58,-1.883 1.05,-2.754 l 13.2,0 c -0.67,1.602 -1.12,3.106 -1.35,4.5 -0.24,1.399 -0.35,3.371 -0.35,5.903 l 0,28.3 c 0,2.403 -0.25,4.618 -0.75,6.649 -0.5,2.031 -1.45,3.777 -2.85,5.254 -1.4,1.465 -3.39,2.597 -5.95,3.398 -2.57,0.801 -5.89,1.199 -9.95,1.199 -2.6,0 -5.05,-0.281 -7.35,-0.847 -2.3,-0.574 -4.3,-1.504 -6,-2.801 -1.7,-1.301 -3.05,-3.02 -4.05,-5.148 -1,-2.137 -1.5,-4.739 -1.5,-7.801 l 0,-1.301 12.4,0 z m 12.8,-21.008 c 0,-1.519 -0.27,-2.808 -0.8,-3.844 -0.54,-1.027 -1.22,-1.875 -2.05,-2.55 -0.84,-0.672 -1.75,-1.153 -2.75,-1.454 -1,-0.292 -1.97,-0.453 -2.9,-0.453 -1.87,0 -3.2,0.735 -4,2.207 -0.8,1.465 -1.2,3.227 -1.2,5.293 0,2.407 0.6,4.309 1.8,5.707 1.2,1.395 3.2,2.403 6,2.996 0.86,0.208 1.83,0.528 2.9,0.958 1.06,0.429 2.06,1.015 3,1.75 l 0,-10.61 z m 23.25,-16.297 13.8,0 0,35.703 c 0,5.926 2.44,8.899 7.3,8.899 2.07,0 3.57,-0.547 4.5,-1.653 0.94,-1.093 1.4,-3.046 1.4,-5.847 l 0,-37.102 13.8,0 0,39.903 c 0,5.402 -1.18,9.296 -3.55,11.699 -2.36,2.402 -5.75,3.601 -10.15,3.601 -3,0 -5.66,-0.625 -8,-1.851 -2.33,-1.231 -4.23,-3.176 -5.7,-5.852 l -0.2,0 0,6.297 -13.2,0 0,-53.797 z m 53.86,53.797 -7,0 0,-9.39 7,0 0,-30.801 c 0,-2.735 0.17,-5 0.5,-6.809 0.34,-1.797 0.95,-3.242 1.85,-4.344 0.9,-1.105 2.19,-1.875 3.85,-2.355 1.67,-0.469 3.87,-0.691 6.6,-0.691 1.6,0 3.12,0.066 4.55,0.195 1.44,0.137 2.92,0.269 4.45,0.398 l 0,9.602 c -0.46,-0.07 -0.96,-0.117 -1.5,-0.149 -0.53,-0.031 -1.06,-0.046 -1.6,-0.046 -2,0 -3.31,0.449 -3.95,1.343 -0.63,0.903 -0.95,2.422 -0.95,4.555 l 0,29.102 8,0 0,9.39 -8,0 0,15.402 -13.8,0 0,-15.402 z m 27.88,-53.797 13.8,0 0,32.305 c 0,1.797 0.3,3.32 0.9,4.551 0.6,1.23 1.4,2.226 2.4,3 1,0.769 2.1,1.316 3.3,1.648 1.2,0.332 2.4,0.496 3.6,0.496 0.74,0 1.45,-0.015 2.15,-0.047 0.7,-0.031 1.42,-0.078 2.15,-0.156 l 0,13.203 c -0.4,0.071 -0.81,0.117 -1.25,0.157 -0.43,0.031 -0.85,0.046 -1.25,0.046 -2.86,0 -5.3,-0.781 -7.3,-2.351 -2,-1.57 -3.7,-3.653 -5.1,-6.25 l -0.2,0 0,7.195 -13.2,0 0,-53.797 z m 34.62,60.403 13.8,0 0,11.796 -13.8,0 0,-11.796 z m 0,-60.403 13.8,0 0,53.797 -13.8,0 0,-53.797 z m 63.39,24.805 0,3.098 c 0,4.129 -0.27,7.879 -0.8,11.25 -0.53,3.367 -1.53,6.226 -3,8.601 -1.47,2.363 -3.48,4.199 -6.05,5.496 -2.57,1.301 -5.85,1.953 -9.85,1.953 -4.67,0 -8.4,-0.769 -11.2,-2.3 -2.8,-1.536 -4.95,-3.606 -6.45,-6.204 -1.5,-2.597 -2.5,-5.566 -3,-8.894 -0.5,-3.332 -0.75,-6.801 -0.75,-10.402 0,-3.329 0.15,-6.719 0.45,-10.149 0.3,-3.433 1.12,-6.531 2.45,-9.305 1.33,-2.761 3.4,-5.019 6.2,-6.746 2.8,-1.73 6.7,-2.597 11.7,-2.597 6.6,0 11.43,1.679 14.5,5.047 3.07,3.371 4.73,8.183 5,14.453 l -12.4,0 c -0.4,-3.407 -1.13,-5.938 -2.2,-7.61 -1.07,-1.668 -2.77,-2.5 -5.1,-2.5 -1.27,0 -2.33,0.356 -3.2,1.059 -0.87,0.699 -1.57,1.629 -2.1,2.801 -0.53,1.164 -0.92,2.5 -1.15,3.996 -0.23,1.504 -0.35,3.055 -0.35,4.644 l 0,4.309 27.3,0 z m -27.3,8.191 0,2.102 c 0,1.269 0.12,2.527 0.35,3.809 0.23,1.269 0.62,2.414 1.15,3.449 0.53,1.023 1.25,1.863 2.15,2.5 0.9,0.625 2.05,0.945 3.45,0.945 1.4,0 2.55,-0.281 3.45,-0.848 0.9,-0.57 1.6,-1.398 2.1,-2.5 0.5,-1.105 0.85,-2.433 1.05,-4.004 0.2,-1.566 0.33,-3.378 0.4,-5.453 l -14.1,0 z m 35.32,-32.996 13.2,0 0,5.703 0.2,0 c 1.53,-2.531 3.25,-4.355 5.15,-5.449 1.9,-1.101 4.25,-1.648 7.05,-1.648 5.67,0 9.83,2.215 12.5,6.648 2.67,4.426 4,11.653 4,21.653 0,10 -1.33,17.214 -4,21.648 -2.67,4.426 -6.83,6.648 -12.5,6.648 -2.6,0 -4.82,-0.535 -6.65,-1.597 -1.83,-1.074 -3.48,-2.676 -4.95,-4.809 l -0.2,0 0,22.61 -13.8,0 0,-71.407 z m 15.15,40.157 c 0.9,2.968 2.88,4.445 5.95,4.445 3,0 4.95,-1.477 5.85,-4.445 0.9,-2.977 1.35,-7.383 1.35,-13.25 0,-5.872 -0.45,-10.286 -1.35,-13.254 -0.9,-2.969 -2.85,-4.454 -5.85,-4.454 -3.07,0 -5.05,1.485 -5.95,4.454 -0.9,2.968 -1.35,7.382 -1.35,13.254 0,5.867 0.45,10.273 1.35,13.25 m 74.86,-15.352 0,3.098 c 0,4.129 -0.27,7.879 -0.8,11.25 -0.53,3.367 -1.53,6.226 -3,8.601 -1.47,2.363 -3.48,4.199 -6.05,5.496 -2.57,1.301 -5.85,1.953 -9.85,1.953 -4.67,0 -8.4,-0.769 -11.2,-2.3 -2.8,-1.536 -4.95,-3.606 -6.45,-6.204 -1.5,-2.597 -2.5,-5.566 -3,-8.894 -0.5,-3.332 -0.75,-6.801 -0.75,-10.402 0,-3.329 0.15,-6.719 0.45,-10.149 0.3,-3.433 1.12,-6.531 2.45,-9.305 1.33,-2.761 3.4,-5.019 6.2,-6.746 2.8,-1.73 6.7,-2.597 11.7,-2.597 6.6,0 11.43,1.679 14.5,5.047 3.07,3.371 4.73,8.183 5,14.453 l -12.4,0 c -0.4,-3.407 -1.13,-5.938 -2.2,-7.61 -1.07,-1.668 -2.77,-2.5 -5.1,-2.5 -1.27,0 -2.33,0.356 -3.2,1.059 -0.87,0.699 -1.57,1.629 -2.1,2.801 -0.53,1.164 -0.92,2.5 -1.15,3.996 -0.23,1.504 -0.35,3.055 -0.35,4.644 l 0,4.309 27.3,0 z m -27.3,8.191 0,2.102 c 0,1.269 0.12,2.527 0.35,3.809 0.23,1.269 0.62,2.414 1.15,3.449 0.53,1.023 1.25,1.863 2.15,2.5 0.9,0.625 2.05,0.945 3.45,0.945 1.4,0 2.55,-0.281 3.45,-0.848 0.9,-0.57 1.6,-1.398 2.1,-2.5 0.5,-1.105 0.85,-2.433 1.05,-4.004 0.2,-1.566 0.33,-3.378 0.4,-5.453 l -14.1,0 z m 86.1,-32.996 13.2,0 0,53.797 -13.8,0 0,-35.691 c 0,-5.938 -2.43,-8.907 -7.3,-8.907 -2.07,0 -3.57,0.555 -4.5,1.653 -0.93,1.101 -1.4,3.055 -1.4,5.847 l 0,37.098 -13.8,0 0,-39.89 c 0,-5.403 1.18,-9.305 3.55,-11.708 2.37,-2.394 5.75,-3.593 10.15,-3.593 3,0 5.67,0.613 8,1.843 2.33,1.231 4.23,3.184 5.7,5.848 l 0.2,0 0,-6.297 z m 23,0 13.8,0 0,35.703 c 0,5.926 2.43,8.899 7.3,8.899 2.07,0 3.57,-0.547 4.5,-1.653 0.93,-1.093 1.4,-3.046 1.4,-5.847 l 0,-37.102 13.8,0 0,39.903 c 0,5.402 -1.18,9.296 -3.55,11.699 -2.37,2.402 -5.75,3.601 -10.15,3.601 -3,0 -5.67,-0.625 -8,-1.851 -2.33,-1.231 -4.23,-3.176 -5.7,-5.852 l -0.2,0 0,6.297 -13.2,0 0,-53.797 z m 78.24,0 13.2,0 0,71.407 -13.8,0 0,-22.61 -0.2,0 c -1.47,2.133 -3.12,3.735 -4.95,4.809 -1.83,1.062 -4.05,1.597 -6.65,1.597 -5.67,0 -9.83,-2.222 -12.5,-6.648 -2.67,-4.434 -4,-11.648 -4,-21.648 0,-10 1.33,-17.227 4,-21.653 2.67,-4.433 6.83,-6.648 12.5,-6.648 2.8,0 5.15,0.547 7.05,1.648 1.9,1.094 3.62,2.918 5.15,5.449 l 0.2,0 0,-5.703 z m -13.75,40.157 c 0.9,2.968 2.85,4.445 5.85,4.445 3.07,0 5.05,-1.477 5.95,-4.445 0.9,-2.977 1.35,-7.383 1.35,-13.25 0,-5.872 -0.45,-10.286 -1.35,-13.254 -0.9,-2.969 -2.88,-4.454 -5.95,-4.454 -3,0 -4.95,1.485 -5.85,4.454 -0.9,2.968 -1.35,7.382 -1.35,13.254 0,5.867 0.45,10.273 1.35,13.25"
             style="fill:#00549f;fill-opacity:1;fill-rule:nonzero;stroke:none"
             id="path3059"
             inkscape:connector-curvature="0" /><path
             d="m 927.23,524.941 -14.398,0 0,-71.402 14.398,0 0,71.402 z m 10.602,-71.402 13.801,0 0,35.699 c 0,5.942 2.426,8.903 7.297,8.903 2.07,0 3.57,-0.551 4.5,-1.653 0.929,-1.097 1.398,-3.047 1.398,-5.847 l 0,-37.102 13.801,0 0,39.902 c 0,5.399 -1.18,9.297 -3.551,11.7 -2.367,2.398 -5.746,3.597 -10.144,3.597 -3.004,0 -5.676,-0.609 -8.004,-1.847 -2.328,-1.231 -4.231,-3.18 -5.7,-5.852 l -0.199,0 0,6.301 -13.199,0 0,-53.801 z m 48.457,17.598 0,-1.899 c 0,-2.597 0.305,-4.945 0.902,-7.047 0.598,-2.101 1.649,-3.902 3.153,-5.398 1.496,-1.504 3.519,-2.652 6.047,-3.453 2.531,-0.801 5.769,-1.199 9.699,-1.199 2.87,0 5.53,0.347 8,1.047 2.47,0.703 4.58,1.753 6.35,3.152 1.77,1.398 3.15,3.172 4.15,5.301 1,2.136 1.5,4.597 1.5,7.398 0,4.07 -0.9,7.289 -2.7,9.652 -1.8,2.368 -4.87,4.289 -9.2,5.747 l -8.3,2.804 c -2.33,0.738 -3.92,1.641 -4.75,2.699 -0.83,1.071 -1.253,2.27 -1.253,3.598 0,1.941 0.653,3.391 1.953,4.352 1.3,0.972 2.82,1.449 4.55,1.449 2.27,0 3.85,-0.649 4.75,-1.953 0.9,-1.297 1.35,-3.348 1.35,-6.149 l 12.4,0 0,2.203 c 0,4.872 -1.5,8.637 -4.5,11.301 -3,2.668 -7.63,3.996 -13.9,3.996 -3.53,0 -6.549,-0.425 -9.049,-1.297 -2.5,-0.859 -4.55,-2.031 -6.152,-3.5 -1.598,-1.461 -2.769,-3.179 -3.5,-5.152 -0.726,-1.957 -1.101,-4.047 -1.101,-6.25 0,-3.801 0.972,-6.91 2.902,-9.351 1.93,-2.426 4.801,-4.305 8.598,-5.649 l 9.702,-3.5 c 1.33,-0.527 2.5,-1.25 3.5,-2.148 1,-0.899 1.5,-2.211 1.5,-3.95 0,-2.128 -0.63,-3.734 -1.9,-4.8 -1.27,-1.063 -2.97,-1.602 -5.1,-1.602 -2.33,0 -4.12,0.723 -5.35,2.152 -1.227,1.442 -1.849,3.321 -1.849,5.649 l 0,1.797 -12.402,0 z m 51.041,36.203 -7,0 0,-9.399 7,0 0,-30.8 c 0,-2.731 0.17,-5 0.5,-6.797 0.33,-1.805 0.95,-3.254 1.85,-4.352 0.9,-1.105 2.18,-1.883 3.85,-2.355 1.67,-0.457 3.87,-0.696 6.6,-0.696 1.6,0 3.12,0.067 4.55,0.2 1.43,0.14 2.92,0.265 4.45,0.398 l 0,9.602 c -0.47,-0.059 -0.97,-0.11 -1.5,-0.153 -0.53,-0.031 -1.07,-0.047 -1.6,-0.047 -2,0 -3.32,0.45 -3.95,1.352 -0.63,0.898 -0.95,2.414 -0.95,4.547 l 0,29.101 8,0 0,9.399 -8,0 0,15.398 -13.8,0 0,-15.398 z m 28.4,6.601 13.8,0 0,11.801 -13.8,0 0,-11.801 z m 0,-60.402 13.8,0 0,53.801 -13.8,0 0,-53.801 z m 27.22,53.801 -7,0 0,-9.399 7,0 0,-30.8 c 0,-2.731 0.16,-5 0.5,-6.797 0.33,-1.805 0.95,-3.254 1.85,-4.352 0.9,-1.105 2.18,-1.883 3.85,-2.355 1.66,-0.457 3.86,-0.696 6.6,-0.696 1.6,0 3.11,0.067 4.55,0.2 1.43,0.14 2.91,0.265 4.45,0.398 l 0,9.602 c -0.47,-0.059 -0.97,-0.11 -1.5,-0.153 -0.54,-0.031 -1.07,-0.047 -1.6,-0.047 -2,0 -3.32,0.45 -3.95,1.352 -0.64,0.898 -0.95,2.414 -0.95,4.547 l 0,29.101 8,0 0,9.399 -8,0 0,15.398 -13.8,0 0,-15.398 z m 55.31,-53.801 13.2,0 0,53.801 -13.8,0 0,-35.699 c 0,-5.934 -2.44,-8.903 -7.3,-8.903 -2.07,0 -3.57,0.551 -4.5,1.653 -0.94,1.097 -1.4,3.05 -1.4,5.847 l 0,37.102 -13.8,0 0,-39.899 c 0,-5.402 1.18,-9.3 3.55,-11.699 2.36,-2.402 5.75,-3.601 10.15,-3.601 3,0 5.66,0.617 8,1.847 2.33,1.242 4.23,3.192 5.7,5.852 l 0.2,0 0,-6.301 z m 26.36,53.801 -7,0 0,-9.399 7,0 0,-30.8 c 0,-2.731 0.16,-5 0.5,-6.797 0.33,-1.805 0.95,-3.254 1.85,-4.352 0.9,-1.105 2.18,-1.883 3.85,-2.355 1.66,-0.457 3.86,-0.696 6.6,-0.696 1.6,0 3.11,0.067 4.55,0.2 1.43,0.14 2.91,0.265 4.45,0.398 l 0,9.602 c -0.47,-0.059 -0.97,-0.11 -1.5,-0.153 -0.54,-0.031 -1.07,-0.047 -1.6,-0.047 -2,0 -3.32,0.45 -3.95,1.352 -0.64,0.898 -0.95,2.414 -0.95,4.547 l 0,29.101 8,0 0,9.399 -8,0 0,15.398 -13.8,0 0,-15.398 z m 53.59,-53.801 13.8,0 0,44.402 8,0 0,9.399 -8,0 0,4.699 c 0,1.539 0.4,2.641 1.2,3.305 0.8,0.668 2.17,0.996 4.1,0.996 l 1.3,0 c 0.6,0 1.07,-0.031 1.4,-0.102 l 0,9.801 c -2.53,0.199 -5,0.301 -7.4,0.301 -2.2,0 -4.2,-0.211 -6,-0.652 -1.8,-0.43 -3.31,-1.149 -4.55,-2.149 -1.23,-1 -2.18,-2.328 -2.85,-4 -0.66,-1.656 -1,-3.699 -1,-6.098 l 0,-6.101 -7,0 0,-9.399 7,0 0,-44.402 z m 55.31,0 13.2,0 0,53.801 -13.8,0 0,-35.699 c 0,-5.934 -2.43,-8.903 -7.3,-8.903 -2.06,0 -3.56,0.551 -4.5,1.653 -0.93,1.097 -1.4,3.05 -1.4,5.847 l 0,37.102 -13.8,0 0,-39.899 c 0,-5.402 1.19,-9.3 3.55,-11.699 2.37,-2.402 5.75,-3.601 10.15,-3.601 3,0 5.67,0.617 8,1.847 2.34,1.242 4.24,3.192 5.7,5.852 l 0.2,0 0,-6.301 z m -4.2,61.5 11.2,0 0,11.801 -11.2,0 0,-11.801 z m -17.2,0 11.2,0 0,11.801 -11.2,0 0,-11.801 z m 44.4,-61.5 13.8,0 0,32.301 c 0,1.801 0.3,3.32 0.9,4.551 0.6,1.242 1.4,2.242 2.4,3 1,0.769 2.1,1.32 3.3,1.648 1.2,0.344 2.4,0.504 3.6,0.504 0.74,0 1.45,-0.012 2.15,-0.055 0.7,-0.031 1.42,-0.078 2.15,-0.144 l 0,13.195 c -0.4,0.07 -0.81,0.121 -1.25,0.152 -0.43,0.039 -0.85,0.047 -1.25,0.047 -2.86,0 -5.3,-0.781 -7.3,-2.347 -2,-1.563 -3.7,-3.653 -5.1,-6.25 l -0.2,0 0,7.199 -13.2,0 0,-53.801"
             style="fill:#00549f;fill-opacity:1;fill-rule:nonzero;stroke:none"
             id="path3061"
             inkscape:connector-curvature="0" /></g></g></g></g></svg>